<svg xmlns="http://www.w3.org/2000/svg" xmlns:xlink="http://www.w3.org/1999/xlink" width="500" zoomAndPan="magnify" viewBox="0 0 375 374.999991" height="500" preserveAspectRatio="xMidYMid meet" version="1.0"><defs><clipPath id="51e609ad71"><path d="M 53.710938 125 L 321.460938 125 L 321.460938 249 L 53.710938 249 Z M 53.710938 125 " clip-rule="nonzero"/></clipPath></defs><rect x="-37.5" width="450" fill="#ffffff" y="-37.499999" height="449.999989" fill-opacity="1"/><rect x="-37.5" width="450" fill="#000000" y="-37.499999" height="449.999989" fill-opacity="1"/><g clip-path="url(#51e609ad71)"><path fill="#ffffff" d="M 53.535156 187.078125 C 53.535156 220.917969 81.101562 248.484375 114.941406 248.484375 L 260.054688 248.484375 C 276.375 248.484375 291.800781 242.117188 303.445312 230.46875 C 315.089844 218.824219 321.460938 203.398438 321.460938 187.078125 C 321.460938 153.238281 293.890625 125.667969 260.054688 125.667969 L 114.941406 125.667969 C 81.101562 125.667969 53.535156 153.238281 53.535156 187.078125 Z M 265.925781 182.101562 C 268.613281 182.101562 270.902344 184.289062 270.902344 187.078125 C 270.902344 189.863281 268.613281 192.054688 265.925781 192.054688 L 109.070312 192.054688 C 106.382812 192.054688 104.09375 189.863281 104.09375 187.078125 C 104.09375 184.289062 106.382812 182.101562 109.070312 182.101562 Z M 265.925781 182.101562 " fill-opacity="1" fill-rule="nonzero"/></g><path fill="#000000" d="M 170.171875 161.035156 L 187.570312 178.4375 L 204.972656 161.035156 C 211.0625 154.945312 220.195312 164.082031 214.105469 170.171875 L 196.707031 187.570312 L 214.105469 204.972656 C 220.195312 211.0625 211.0625 220.195312 204.972656 214.105469 L 187.570312 196.707031 L 170.171875 214.105469 C 164.082031 220.195312 154.945312 211.0625 161.035156 204.972656 L 178.4375 187.570312 L 161.035156 170.171875 C 154.945312 164.082031 164.082031 154.945312 170.171875 161.035156 Z M 170.171875 161.035156 " fill-opacity="1" fill-rule="evenodd"/></svg>