<svg xmlns="http://www.w3.org/2000/svg" xmlns:xlink="http://www.w3.org/1999/xlink" width="500" zoomAndPan="magnify" viewBox="0 0 375 374.999991" height="500" preserveAspectRatio="xMidYMid meet" version="1.0"><defs><clipPath id="3942c5f157"><path d="M 87 241 L 288 241 L 288 322.339844 L 87 322.339844 Z M 87 241 " clip-rule="nonzero"/></clipPath><clipPath id="d400ce51ab"><path d="M 196 70 L 327.359375 70 L 327.359375 246 L 196 246 Z M 196 70 " clip-rule="nonzero"/></clipPath><clipPath id="1407da823b"><path d="M 47.609375 70 L 179 70 L 179 246 L 47.609375 246 Z M 47.609375 70 " clip-rule="nonzero"/></clipPath></defs><rect x="-37.5" width="450" fill="#ffffff" y="-37.499999" height="449.999989" fill-opacity="1"/><rect x="-37.5" width="450" fill="#00ca6a" y="-37.499999" height="449.999989" fill-opacity="1"/><g clip-path="url(#3942c5f157)"><path fill="#ffffff" d="M 287.597656 297.644531 L 231.5625 241.273438 L 143.070312 241.273438 L 87.03125 297.644531 L 113.324219 324.09375 L 169.363281 267.722656 C 174.167969 262.890625 180.5 260.253906 187.316406 260.253906 C 194.128906 260.253906 200.460938 262.890625 205.265625 267.722656 L 261.304688 324.09375 Z M 287.597656 297.644531 " fill-opacity="1" fill-rule="nonzero"/></g><g clip-path="url(#d400ce51ab)"><path fill="#ffffff" d="M 240.90625 225.019531 L 317.429688 245.625 L 327.042969 209.464844 L 250.515625 188.859375 C 243.964844 187.101562 238.503906 182.886719 235.097656 176.953125 C 231.691406 171.066406 230.820312 164.167969 232.566406 157.578125 L 253.050781 80.605469 L 217.101562 70.9375 L 196.617188 147.914062 L 240.863281 224.976562 Z M 240.90625 225.019531 " fill-opacity="1" fill-rule="nonzero"/></g><g clip-path="url(#1407da823b)"><path fill="#ffffff" d="M 57.242188 245.625 L 133.765625 225.019531 L 133.808594 224.976562 L 178.054688 147.914062 L 157.570312 70.9375 L 121.625 80.605469 L 142.109375 157.578125 C 143.855469 164.167969 142.984375 171.066406 139.574219 176.953125 C 136.167969 182.886719 130.707031 187.101562 124.15625 188.859375 L 47.632812 209.464844 Z M 57.242188 245.625 " fill-opacity="1" fill-rule="nonzero"/></g></svg>