<svg xmlns="http://www.w3.org/2000/svg" xmlns:xlink="http://www.w3.org/1999/xlink" width="500" zoomAndPan="magnify" viewBox="0 0 375 374.999991" height="500" preserveAspectRatio="xMidYMid meet" version="1.0"><rect x="-37.5" width="450" fill="#ffffff" y="-37.499999" height="449.999989" fill-opacity="1"/><rect x="-37.5" width="450" fill="#ffffff" y="-37.499999" height="449.999989" fill-opacity="1"/><path fill="#213147" d="M 33.898438 114 L 33.898438 261 C 33.898438 270.449219 38.851562 279 47.101562 283.800781 L 174.449219 357.300781 C 182.550781 361.949219 192.601562 361.949219 200.699219 357.300781 L 328.050781 283.800781 C 336.148438 279.148438 341.25 270.449219 341.25 261 L 341.25 114 C 341.25 104.550781 336.300781 96 328.050781 91.199219 L 200.699219 17.699219 C 192.601562 13.050781 182.550781 13.050781 174.449219 17.699219 L 47.101562 91.199219 C 39 95.851562 34.050781 104.550781 34.050781 114 Z M 33.898438 114 " fill-opacity="1" fill-rule="nonzero"/><path fill="#12aaff" d="M 215.25 216 L 197.101562 265.800781 C 196.648438 267.148438 196.648438 268.648438 197.101562 270.148438 L 228.300781 355.800781 L 264.449219 334.949219 L 221.101562 216 C 220.050781 213.300781 216.300781 213.300781 215.25 216 Z M 215.25 216 " fill-opacity="1" fill-rule="nonzero"/><path fill="#12aaff" d="M 251.699219 132.300781 C 250.648438 129.601562 246.898438 129.601562 245.851562 132.300781 L 227.699219 182.101562 C 227.25 183.449219 227.25 184.949219 227.699219 186.449219 L 278.851562 326.699219 L 315 305.851562 L 251.699219 132.449219 Z M 251.699219 132.300781 " fill-opacity="1" fill-rule="nonzero"/><path fill="#9dcced" d="M 187.5 23.25 C 188.398438 23.25 189.300781 23.550781 190.050781 24 L 327.75 103.5 C 329.398438 104.398438 330.300781 106.199219 330.300781 108 L 330.300781 267 C 330.300781 268.800781 329.25 270.601562 327.75 271.5 L 190.050781 351 C 189.300781 351.449219 188.398438 351.75 187.5 351.75 C 186.601562 351.75 185.699219 351.449219 184.949219 351 L 47.25 271.5 C 45.601562 270.601562 44.699219 268.800781 44.699219 267 L 44.699219 107.851562 C 44.699219 106.050781 45.75 104.25 47.25 103.351562 L 184.949219 23.851562 C 185.699219 23.398438 186.601562 23.101562 187.5 23.101562 Z M 187.5 0 C 182.550781 0 177.75 1.199219 173.25 3.75 L 35.550781 83.25 C 26.699219 88.351562 21.300781 97.648438 21.300781 107.851562 L 21.300781 266.851562 C 21.300781 277.050781 26.699219 286.351562 35.550781 291.449219 L 173.25 370.949219 C 177.601562 373.5 182.550781 374.699219 187.5 374.699219 C 192.449219 374.699219 197.25 373.5 201.75 370.949219 L 339.449219 291.449219 C 348.300781 286.351562 353.699219 277.050781 353.699219 266.851562 L 353.699219 107.851562 C 353.699219 97.648438 348.300781 88.351562 339.449219 83.25 L 201.601562 3.75 C 197.25 1.199219 192.300781 0 187.351562 0 Z M 187.5 0 " fill-opacity="1" fill-rule="nonzero"/><path fill="#213147" d="M 96.300781 326.851562 L 109.050781 292.050781 L 134.550781 313.199219 L 110.699219 335.101562 Z M 96.300781 326.851562 " fill-opacity="1" fill-rule="nonzero"/><path fill="#ffffff" d="M 175.800781 96.601562 L 140.851562 96.601562 C 138.300781 96.601562 135.898438 98.25 135 100.648438 L 60.148438 305.851562 L 96.300781 326.699219 L 178.800781 100.648438 C 179.550781 98.550781 178.050781 96.449219 175.949219 96.449219 Z M 175.800781 96.601562 " fill-opacity="1" fill-rule="nonzero"/><path fill="#ffffff" d="M 237 96.601562 L 202.050781 96.601562 C 199.5 96.601562 197.101562 98.25 196.199219 100.648438 L 110.699219 334.949219 L 146.851562 355.800781 L 239.851562 100.648438 C 240.601562 98.550781 239.101562 96.449219 237 96.449219 Z M 237 96.601562 " fill-opacity="1" fill-rule="nonzero"/></svg>