<svg xmlns="http://www.w3.org/2000/svg" xmlns:xlink="http://www.w3.org/1999/xlink" width="500" zoomAndPan="magnify" viewBox="0 0 375 374.999991" height="500" preserveAspectRatio="xMidYMid meet" version="1.0"><rect x="-37.5" width="450" fill="#ffffff" y="-37.499999" height="449.999989" fill-opacity="1"/><rect x="-37.5" width="450" fill="#ffffff" y="-37.499999" height="449.999989" fill-opacity="1"/><path fill="#ffffff" d="M 187.5 375 C 162.191406 375 137.636719 370.039062 114.511719 360.261719 C 92.183594 350.816406 72.140625 337.296875 54.914062 320.085938 C 37.703125 302.875 24.183594 282.816406 14.738281 260.488281 C 4.960938 237.363281 0 212.808594 0 187.5 C 0 162.191406 4.960938 137.636719 14.738281 114.511719 C 24.183594 92.183594 37.703125 72.140625 54.914062 54.914062 C 72.140625 37.703125 92.183594 24.183594 114.511719 14.738281 C 137.636719 4.960938 162.191406 0 187.5 0 C 212.808594 0 237.363281 4.960938 260.488281 14.738281 C 282.816406 24.183594 302.859375 37.703125 320.085938 54.914062 C 337.296875 72.125 350.816406 92.183594 360.261719 114.511719 C 370.039062 137.636719 375 162.191406 375 187.5 C 375 212.808594 370.039062 237.363281 360.261719 260.488281 C 350.816406 282.816406 337.296875 302.859375 320.085938 320.085938 C 302.875 337.296875 282.816406 350.816406 260.488281 360.261719 C 237.363281 370.050781 212.808594 375 187.5 375 Z M 187.5 375 " fill-opacity="1" fill-rule="nonzero"/><path fill="#000000" d="M 365.066406 187.5 C 365.066406 190.40625 364.992188 193.308594 364.851562 196.210938 C 364.707031 199.113281 364.496094 202.011719 364.210938 204.90625 C 363.925781 207.796875 363.570312 210.679688 363.144531 213.554688 C 362.714844 216.429688 362.21875 219.289062 361.652344 222.140625 C 361.085938 224.992188 360.449219 227.824219 359.742188 230.644531 C 359.039062 233.464844 358.261719 236.261719 357.417969 239.042969 C 356.574219 241.824219 355.664062 244.582031 354.683594 247.320312 C 353.707031 250.054688 352.660156 252.765625 351.546875 255.449219 C 350.4375 258.136719 349.257812 260.792969 348.015625 263.417969 C 346.773438 266.046875 345.46875 268.640625 344.097656 271.203125 C 342.726562 273.765625 341.296875 276.292969 339.800781 278.785156 C 338.308594 281.277344 336.753906 283.734375 335.140625 286.148438 C 333.523438 288.566406 331.851562 290.941406 330.121094 293.273438 C 328.390625 295.609375 326.601562 297.898438 324.757812 300.144531 C 322.914062 302.390625 321.019531 304.59375 319.066406 306.746094 C 317.113281 308.898438 315.113281 311.003906 313.058594 313.058594 C 311.003906 315.113281 308.898438 317.117188 306.746094 319.066406 C 304.59375 321.019531 302.390625 322.914062 300.144531 324.757812 C 297.898438 326.601562 295.609375 328.390625 293.273438 330.121094 C 290.941406 331.851562 288.566406 333.523438 286.148438 335.140625 C 283.734375 336.753906 281.277344 338.308594 278.785156 339.800781 C 276.292969 341.296875 273.765625 342.726562 271.203125 344.097656 C 268.640625 345.46875 266.046875 346.773438 263.417969 348.015625 C 260.792969 349.257812 258.136719 350.4375 255.449219 351.546875 C 252.765625 352.660156 250.054688 353.707031 247.320312 354.683594 C 244.582031 355.664062 241.824219 356.574219 239.042969 357.417969 C 236.261719 358.261719 233.464844 359.039062 230.644531 359.742188 C 227.824219 360.449219 224.992188 361.085938 222.140625 361.652344 C 219.289062 362.21875 216.429688 362.714844 213.554688 363.144531 C 210.679688 363.570312 207.796875 363.925781 204.90625 364.210938 C 202.011719 364.496094 199.113281 364.707031 196.210938 364.851562 C 193.308594 364.992188 190.40625 365.066406 187.5 365.066406 C 184.59375 365.066406 181.691406 364.992188 178.789062 364.851562 C 175.886719 364.707031 172.988281 364.496094 170.09375 364.210938 C 167.203125 363.925781 164.320312 363.570312 161.445312 363.144531 C 158.570312 362.714844 155.707031 362.21875 152.859375 361.652344 C 150.007812 361.085938 147.175781 360.449219 144.355469 359.742188 C 141.535156 359.039062 138.738281 358.261719 135.957031 357.417969 C 133.175781 356.574219 130.417969 355.664062 127.679688 354.683594 C 124.945312 353.707031 122.234375 352.660156 119.550781 351.546875 C 116.863281 350.4375 114.207031 349.257812 111.582031 348.015625 C 108.953125 346.773438 106.359375 345.46875 103.796875 344.097656 C 101.234375 342.726562 98.707031 341.296875 96.214844 339.800781 C 93.722656 338.308594 91.265625 336.753906 88.851562 335.140625 C 86.433594 333.523438 84.058594 331.851562 81.726562 330.121094 C 79.390625 328.390625 77.101562 326.601562 74.855469 324.757812 C 72.609375 322.914062 70.40625 321.019531 68.253906 319.066406 C 66.101562 317.113281 63.996094 315.113281 61.941406 313.058594 C 59.886719 311.003906 57.882812 308.898438 55.933594 306.746094 C 53.980469 304.59375 52.085938 302.390625 50.242188 300.144531 C 48.398438 297.898438 46.609375 295.609375 44.878906 293.273438 C 43.148438 290.941406 41.476562 288.566406 39.859375 286.148438 C 38.246094 283.734375 36.691406 281.277344 35.199219 278.785156 C 33.703125 276.292969 32.273438 273.765625 30.902344 271.203125 C 29.53125 268.640625 28.226562 266.046875 26.984375 263.417969 C 25.742188 260.792969 24.5625 258.136719 23.453125 255.449219 C 22.339844 252.765625 21.292969 250.054688 20.316406 247.320312 C 19.335938 244.582031 18.425781 241.824219 17.582031 239.042969 C 16.738281 236.261719 15.960938 233.464844 15.257812 230.644531 C 14.550781 227.824219 13.914062 224.992188 13.347656 222.140625 C 12.78125 219.289062 12.285156 216.429688 11.855469 213.554688 C 11.429688 210.679688 11.074219 207.796875 10.789062 204.90625 C 10.503906 202.011719 10.292969 199.113281 10.148438 196.210938 C 10.007812 193.308594 9.933594 190.40625 9.933594 187.5 C 9.933594 184.59375 10.007812 181.691406 10.148438 178.789062 C 10.292969 175.886719 10.503906 172.988281 10.789062 170.09375 C 11.074219 167.203125 11.429688 164.320312 11.855469 161.445312 C 12.285156 158.570312 12.78125 155.707031 13.347656 152.859375 C 13.914062 150.007812 14.550781 147.175781 15.257812 144.355469 C 15.960938 141.535156 16.738281 138.738281 17.582031 135.957031 C 18.425781 133.175781 19.335938 130.417969 20.316406 127.679688 C 21.292969 124.945312 22.339844 122.234375 23.453125 119.550781 C 24.5625 116.863281 25.742188 114.207031 26.984375 111.582031 C 28.226562 108.953125 29.53125 106.359375 30.902344 103.796875 C 32.273438 101.234375 33.703125 98.707031 35.199219 96.214844 C 36.691406 93.722656 38.246094 91.265625 39.859375 88.851562 C 41.476562 86.433594 43.148438 84.058594 44.878906 81.726562 C 46.609375 79.390625 48.398438 77.101562 50.242188 74.855469 C 52.085938 72.609375 53.980469 70.40625 55.933594 68.253906 C 57.882812 66.101562 59.886719 63.996094 61.941406 61.941406 C 63.996094 59.886719 66.101562 57.882812 68.253906 55.933594 C 70.40625 53.980469 72.609375 52.085938 74.855469 50.242188 C 77.101562 48.398438 79.390625 46.609375 81.726562 44.878906 C 84.058594 43.148438 86.433594 41.476562 88.851562 39.859375 C 91.265625 38.246094 93.722656 36.691406 96.214844 35.199219 C 98.707031 33.703125 101.234375 32.273438 103.796875 30.902344 C 106.359375 29.53125 108.953125 28.226562 111.582031 26.984375 C 114.207031 25.742188 116.863281 24.5625 119.550781 23.453125 C 122.234375 22.339844 124.945312 21.292969 127.679688 20.316406 C 130.417969 19.335938 133.175781 18.425781 135.957031 17.582031 C 138.738281 16.738281 141.535156 15.960938 144.355469 15.257812 C 147.175781 14.550781 150.007812 13.914062 152.859375 13.347656 C 155.707031 12.78125 158.570312 12.285156 161.445312 11.855469 C 164.320312 11.429688 167.203125 11.074219 170.09375 10.789062 C 172.988281 10.503906 175.886719 10.292969 178.789062 10.148438 C 181.691406 10.007812 184.59375 9.933594 187.5 9.933594 C 190.40625 9.933594 193.308594 10.007812 196.210938 10.148438 C 199.113281 10.292969 202.011719 10.503906 204.90625 10.789062 C 207.796875 11.074219 210.679688 11.429688 213.554688 11.855469 C 216.429688 12.285156 219.292969 12.78125 222.140625 13.347656 C 224.992188 13.914062 227.824219 14.550781 230.644531 15.257812 C 233.464844 15.960938 236.261719 16.738281 239.042969 17.582031 C 241.824219 18.425781 244.582031 19.335938 247.320312 20.316406 C 250.054688 21.292969 252.765625 22.339844 255.449219 23.453125 C 258.136719 24.5625 260.792969 25.742188 263.417969 26.984375 C 266.046875 28.226562 268.640625 29.53125 271.203125 30.902344 C 273.765625 32.273438 276.292969 33.703125 278.785156 35.199219 C 281.277344 36.691406 283.734375 38.246094 286.148438 39.859375 C 288.566406 41.476562 290.941406 43.148438 293.273438 44.878906 C 295.609375 46.609375 297.898438 48.398438 300.144531 50.242188 C 302.390625 52.085938 304.59375 53.980469 306.746094 55.933594 C 308.898438 57.882812 311.003906 59.886719 313.058594 61.941406 C 315.113281 63.996094 317.117188 66.101562 319.066406 68.253906 C 321.019531 70.40625 322.914062 72.609375 324.757812 74.855469 C 326.601562 77.101562 328.390625 79.390625 330.121094 81.726562 C 331.851562 84.058594 333.523438 86.433594 335.140625 88.851562 C 336.753906 91.265625 338.308594 93.722656 339.800781 96.214844 C 341.296875 98.707031 342.726562 101.234375 344.097656 103.796875 C 345.46875 106.359375 346.773438 108.953125 348.015625 111.582031 C 349.257812 114.207031 350.4375 116.863281 351.546875 119.550781 C 352.660156 122.234375 353.707031 124.945312 354.683594 127.679688 C 355.664062 130.417969 356.574219 133.175781 357.417969 135.957031 C 358.261719 138.738281 359.039062 141.535156 359.742188 144.355469 C 360.449219 147.175781 361.085938 150.007812 361.652344 152.859375 C 362.21875 155.707031 362.714844 158.570312 363.144531 161.445312 C 363.570312 164.320312 363.925781 167.203125 364.210938 170.09375 C 364.496094 172.988281 364.707031 175.886719 364.851562 178.789062 C 364.992188 181.691406 365.066406 184.59375 365.066406 187.5 Z M 365.066406 187.5 " fill-opacity="1" fill-rule="nonzero"/><path fill="#ffffff" d="M 191.867188 154.148438 L 191.867188 235.960938 L 271.957031 187.421875 Z M 191.867188 154.148438 " fill-opacity="1" fill-rule="nonzero"/><path fill="#ffffff" d="M 191.867188 144.914062 L 271.230469 177.894531 L 252.257812 146.964844 L 292.59375 106.628906 L 268.492188 82.511719 L 233.933594 117.078125 L 191.867188 48.5 Z M 191.867188 144.914062 " fill-opacity="1" fill-rule="nonzero"/><path fill="#ffffff" d="M 183.347656 235.960938 L 183.347656 154.148438 L 103.253906 187.421875 Z M 183.347656 235.960938 " fill-opacity="1" fill-rule="nonzero"/><path fill="#ffffff" d="M 103.984375 177.894531 L 183.347656 144.914062 L 183.347656 48.5 L 141.289062 117.078125 L 106.722656 82.511719 L 82.617188 106.628906 L 122.953125 146.953125 Z M 103.984375 177.894531 " fill-opacity="1" fill-rule="nonzero"/><path fill="#ffffff" d="M 271.058594 212.886719 L 191.867188 260.882812 L 191.867188 324.449219 L 224.449219 278.53125 L 258.460938 312.542969 L 282.566406 288.441406 L 244.464844 250.339844 Z M 271.058594 212.886719 " fill-opacity="1" fill-rule="nonzero"/><path fill="#ffffff" d="M 183.347656 260.882812 L 104.15625 212.886719 L 130.746094 250.339844 L 92.644531 288.441406 L 116.75 312.542969 L 150.761719 278.542969 L 183.347656 324.4375 Z M 183.347656 260.882812 " fill-opacity="1" fill-rule="nonzero"/></svg>