<svg xmlns="http://www.w3.org/2000/svg" xmlns:xlink="http://www.w3.org/1999/xlink" width="500" zoomAndPan="magnify" viewBox="0 0 375 374.999991" height="500" preserveAspectRatio="xMidYMid meet" version="1.0"><defs><clipPath id="f19353212a"><path d="M 118.125 86 L 257.515625 86 L 257.515625 288.363281 L 118.125 288.363281 Z M 118.125 86 " clip-rule="nonzero"/></clipPath></defs><rect x="-37.5" width="450" fill="#ffffff" y="-37.499999" height="449.999989" fill-opacity="1"/><rect x="-37.5" width="450" fill="#060606" y="-37.499999" height="449.999989" fill-opacity="1"/><g clip-path="url(#f19353212a)"><path fill="#bff009" d="M 189.640625 136.503906 C 189.640625 128.457031 196.210938 121.902344 204.273438 121.902344 L 230.453125 121.902344 L 230.453125 86.371094 L 204.273438 86.371094 C 176.535156 86.371094 154.042969 108.820312 154.042969 136.503906 C 154.042969 143.730469 155.582031 150.59375 158.339844 156.792969 C 136.796875 165.882812 122.492188 185.191406 119.160156 209.628906 C 115.269531 236.460938 126.039062 265.402344 149.496094 279.386719 C 170.433594 292.542969 203.167969 291.675781 220.851562 273.421875 L 220.851562 285.539062 L 257.289062 285.539062 L 257.289062 151.109375 L 204.289062 151.109375 C 196.226562 151.109375 189.640625 144.550781 189.640625 136.503906 Z M 221.660156 186.652344 L 221.660156 220.398438 C 221.660156 239.039062 206.515625 254.140625 187.851562 254.140625 C 169.1875 254.140625 154.042969 239.023438 154.042969 220.398438 C 154.042969 201.769531 169.1875 186.652344 187.851562 186.652344 Z M 221.660156 186.652344 " fill-opacity="1" fill-rule="nonzero"/></g></svg>