<svg xmlns="http://www.w3.org/2000/svg" xmlns:xlink="http://www.w3.org/1999/xlink" width="500" zoomAndPan="magnify" viewBox="0 0 375 374.999991" height="500" preserveAspectRatio="xMidYMid meet" version="1.0"><defs><clipPath id="18e170511b"><path d="M 31.046875 13.140625 L 343 13.140625 L 343 361 L 31.046875 361 Z M 31.046875 13.140625 " clip-rule="nonzero"/></clipPath></defs><g clip-path="url(#18e170511b)"><path fill="#fa2f79" d="M 342.433594 120.472656 C 342.433594 105.773438 334.59375 92.191406 321.875 84.84375 L 207.300781 18.652344 C 194.578125 11.304688 178.902344 11.304688 166.183594 18.652344 L 51.605469 84.84375 C 38.886719 92.191406 31.046875 105.773438 31.046875 120.472656 L 31.046875 252.851562 C 31.046875 267.550781 38.886719 281.132812 51.605469 288.480469 L 166.183594 354.671875 C 178.902344 362.019531 194.578125 362.019531 207.300781 354.671875 L 321.875 288.480469 C 334.59375 281.132812 342.433594 267.550781 342.433594 252.851562 Z M 151.800781 104.417969 C 144.046875 104.417969 136.875 108.5625 132.996094 115.28125 L 98.0625 175.828125 C 94.183594 182.550781 94.183594 190.832031 98.0625 197.554688 L 132.996094 258.097656 C 136.875 264.820312 144.046875 268.960938 151.800781 268.960938 L 221.671875 268.960938 C 229.429688 268.960938 236.597656 264.820312 240.476562 258.097656 L 275.410156 197.554688 C 279.289062 190.832031 279.289062 182.550781 275.410156 175.828125 L 240.476562 115.28125 C 236.597656 108.5625 229.429688 104.417969 221.671875 104.417969 Z M 151.800781 104.417969 " fill-opacity="1" fill-rule="evenodd"/></g></svg>