<svg xmlns="http://www.w3.org/2000/svg" xmlns:xlink="http://www.w3.org/1999/xlink" width="500" zoomAndPan="magnify" viewBox="0 0 375 374.999991" height="500" preserveAspectRatio="xMidYMid meet" version="1.0"><rect x="-37.5" width="450" fill="#ffffff" y="-37.499999" height="449.999989" fill-opacity="1"/><rect x="-37.5" width="450" fill="#ffffff" y="-37.499999" height="449.999989" fill-opacity="1"/><rect x="-37.5" width="450" fill="#ffeeda" y="-37.499999" height="449.999989" fill-opacity="1"/><path fill="#ffeeda" d="M 281.585938 221.285156 L 281.585938 93.414062 C 281.417969 82.6875 272.886719 74.070312 262.164062 74.070312 L 128.714844 74.070312 C 99.914062 74.492188 76.773438 98.058594 76.773438 126.941406 C 76.773438 136.65625 79.390625 145.015625 83.363281 152.363281 C 86.738281 158.445312 92.0625 164.1875 97.296875 168.496094 C 98.816406 169.679688 98.058594 169.171875 102.617188 171.960938 C 108.867188 175.761719 116.046875 177.703125 116.046875 177.703125 L 115.960938 254.222656 C 116.132812 257.855469 116.46875 261.316406 117.484375 264.613281 C 120.4375 275.421875 127.957031 283.699219 138.089844 287.667969 C 142.3125 289.359375 147.128906 290.457031 152.28125 290.539062 L 258.867188 290.878906 C 280.066406 290.878906 297.296875 273.648438 297.296875 252.363281 C 297.382812 239.695312 291.046875 228.378906 281.585938 221.285156 Z M 281.585938 221.285156 " fill-opacity="1" fill-rule="nonzero"/><path fill="#ebc28e" d="M 284.207031 253.292969 C 283.785156 266.890625 272.550781 277.871094 258.785156 277.871094 L 185.472656 277.617188 C 191.300781 270.863281 194.847656 262.078125 194.847656 252.449219 C 194.847656 237.414062 185.894531 227.027344 185.894531 227.027344 L 258.867188 227.027344 C 272.886719 227.027344 284.289062 238.429688 284.289062 252.449219 Z M 284.207031 253.292969 " fill-opacity="1" fill-rule="nonzero"/><path fill="#101010" d="M 104.308594 157.6875 C 95.863281 149.664062 89.949219 139.359375 89.949219 127.027344 L 89.949219 125.761719 C 90.625 104.8125 107.855469 87.921875 128.800781 87.332031 L 262.246094 87.332031 C 265.710938 87.5 268.496094 89.949219 268.496094 93.496094 L 268.496094 206.417969 C 271.539062 206.925781 273.058594 207.347656 276.011719 208.445312 C 278.378906 209.289062 281.585938 211.148438 281.585938 211.148438 L 281.585938 93.496094 C 281.417969 82.769531 272.886719 74.15625 262.164062 74.15625 L 128.714844 74.15625 C 99.914062 74.578125 76.773438 98.140625 76.773438 127.027344 C 76.773438 143.835938 84.460938 158.191406 96.960938 168.242188 C 97.804688 168.917969 98.648438 169.847656 100.84375 169.847656 C 104.730469 169.847656 107.515625 166.722656 107.347656 163.34375 C 107.347656 160.472656 106.082031 159.460938 104.308594 157.6875 Z M 104.308594 157.6875 " fill-opacity="1" fill-rule="nonzero"/><path fill="#101010" d="M 258.785156 213.851562 L 154.136719 213.851562 C 147.128906 213.9375 141.46875 219.59375 141.46875 226.605469 L 141.46875 241.636719 C 141.636719 248.5625 147.550781 254.476562 154.644531 254.476562 L 162.414062 254.476562 L 162.414062 241.636719 L 154.5625 241.636719 L 154.5625 226.941406 C 154.5625 226.941406 156.503906 226.941406 158.785156 226.941406 C 172.042969 226.941406 181.757812 239.1875 181.757812 252.363281 C 181.757812 264.019531 171.113281 278.886719 153.378906 277.703125 C 137.667969 276.6875 129.136719 262.667969 129.136719 252.363281 L 129.136719 124.832031 C 129.136719 119.085938 124.410156 114.359375 118.664062 114.359375 L 108.191406 114.359375 L 108.191406 127.449219 L 115.960938 127.449219 L 115.960938 252.449219 C 115.539062 277.871094 134.039062 290.625 153.378906 290.625 L 258.867188 290.960938 C 280.066406 290.960938 297.296875 273.734375 297.296875 252.449219 C 297.382812 231.164062 280.066406 213.851562 258.785156 213.851562 Z M 284.207031 253.292969 C 283.785156 266.890625 272.550781 277.871094 258.785156 277.871094 L 185.472656 277.617188 C 191.300781 270.863281 194.847656 262.078125 194.847656 252.449219 C 194.847656 237.414062 185.894531 227.027344 185.894531 227.027344 L 258.867188 227.027344 C 272.886719 227.027344 284.289062 238.429688 284.289062 252.449219 Z M 284.207031 253.292969 " fill-opacity="1" fill-rule="nonzero"/><path fill="#101010" d="M 230.574219 129.8125 L 151.6875 129.8125 L 151.6875 116.722656 L 230.574219 116.722656 C 234.121094 116.722656 237.078125 119.59375 237.078125 123.226562 C 237.164062 126.859375 234.289062 129.8125 230.574219 129.8125 Z M 230.574219 129.8125 " fill-opacity="1" fill-rule="nonzero"/><path fill="#101010" d="M 230.574219 191.214844 L 151.6875 191.214844 L 151.6875 178.210938 L 230.574219 178.210938 C 234.121094 178.210938 237.078125 181.082031 237.078125 184.710938 C 237.164062 188.261719 234.289062 191.214844 230.574219 191.214844 Z M 230.574219 191.214844 " fill-opacity="1" fill-rule="nonzero"/><path fill="#101010" d="M 244.511719 160.472656 L 151.6875 160.472656 L 151.6875 147.382812 L 244.425781 147.382812 C 247.972656 147.382812 250.929688 150.253906 250.929688 153.886719 C 251.097656 157.515625 248.140625 160.472656 244.511719 160.472656 Z M 244.511719 160.472656 " fill-opacity="1" fill-rule="nonzero"/></svg>