<svg xmlns="http://www.w3.org/2000/svg" xmlns:xlink="http://www.w3.org/1999/xlink" width="500" zoomAndPan="magnify" viewBox="0 0 375 374.999991" height="500" preserveAspectRatio="xMidYMid meet" version="1.0"><defs><clipPath id="20458b4488"><path d="M 47.726562 8.589844 L 327.476562 8.589844 L 327.476562 366 L 47.726562 366 Z M 47.726562 8.589844 " clip-rule="nonzero"/></clipPath></defs><g clip-path="url(#20458b4488)"><path fill="#4da2ff" d="M 271.578125 157.570312 C 286.164062 175.867188 294.886719 199.007812 294.886719 224.175781 C 294.886719 249.34375 285.898438 273.191406 270.929688 291.589844 L 269.632812 293.179688 L 269.292969 291.160156 C 269 289.453125 268.660156 287.71875 268.261719 285.980469 C 260.765625 253.070312 236.335938 224.851562 196.132812 201.992188 C 168.976562 186.597656 153.433594 168.082031 149.355469 147.019531 C 146.71875 133.402344 148.675781 119.730469 152.460938 108.011719 C 156.25 96.3125 161.875 86.492188 166.664062 80.589844 L 182.3125 61.488281 C 185.050781 58.128906 190.195312 58.128906 192.933594 61.488281 L 271.59375 157.570312 Z M 296.316406 138.480469 L 191.476562 10.425781 C 189.472656 7.984375 185.730469 7.984375 183.726562 10.425781 L 78.898438 138.480469 L 78.5625 138.910156 C 59.277344 162.828125 47.726562 193.222656 47.726562 226.308594 C 47.726562 303.363281 110.355469 365.832031 187.601562 365.832031 C 264.847656 365.832031 327.476562 303.363281 327.476562 226.308594 C 327.476562 193.222656 315.925781 162.828125 296.640625 138.921875 L 296.300781 138.496094 Z M 103.992188 157.160156 L 113.359375 145.695312 L 113.640625 147.8125 C 113.863281 149.492188 114.140625 151.167969 114.464844 152.863281 C 120.535156 184.667969 142.207031 211.179688 178.4375 231.710938 C 209.9375 249.625 228.277344 270.21875 233.550781 292.796875 C 235.761719 302.214844 236.144531 311.488281 235.1875 319.597656 L 235.128906 320.097656 L 234.671875 320.320312 C 220.457031 327.253906 204.46875 331.152344 187.585938 331.152344 C 128.34375 331.152344 80.316406 283.257812 80.316406 224.160156 C 80.316406 198.785156 89.167969 175.484375 103.960938 157.128906 Z M 103.992188 157.160156 " fill-opacity="1" fill-rule="evenodd"/></g></svg>