<svg xmlns="http://www.w3.org/2000/svg" xmlns:xlink="http://www.w3.org/1999/xlink" width="500" zoomAndPan="magnify" viewBox="0 0 375 374.999991" height="500" preserveAspectRatio="xMidYMid meet" version="1.0"><defs><clipPath id="e1e090308f"><path d="M 29.644531 50.132812 L 345.394531 50.132812 L 345.394531 324.632812 L 29.644531 324.632812 Z M 29.644531 50.132812 " clip-rule="nonzero"/></clipPath></defs><rect x="-37.5" width="450" fill="#ffffff" y="-37.499999" height="449.999989" fill-opacity="1"/><rect x="-37.5" width="450" fill="#4faf95" y="-37.499999" height="449.999989" fill-opacity="1"/><g clip-path="url(#e1e090308f)"><path fill="#50af95" d="M 87.457031 51.53125 L 29.882812 172.339844 C 29.660156 172.800781 29.59375 173.285156 29.6875 173.789062 C 29.78125 174.292969 30.011719 174.722656 30.386719 175.074219 L 185.875 323.917969 C 186.097656 324.132812 186.347656 324.292969 186.632812 324.40625 C 186.917969 324.523438 187.210938 324.578125 187.519531 324.578125 C 187.824219 324.578125 188.117188 324.523438 188.402344 324.40625 C 188.6875 324.292969 188.9375 324.132812 189.160156 323.917969 L 344.648438 175.082031 C 345.023438 174.730469 345.257812 174.304688 345.347656 173.796875 C 345.441406 173.292969 345.375 172.8125 345.152344 172.351562 L 287.578125 51.539062 C 287.390625 51.125 287.101562 50.796875 286.71875 50.550781 C 286.332031 50.304688 285.914062 50.183594 285.457031 50.183594 L 89.597656 50.183594 C 89.136719 50.179688 88.714844 50.296875 88.328125 50.542969 C 87.941406 50.785156 87.648438 51.117188 87.457031 51.53125 Z M 87.457031 51.53125 " fill-opacity="1" fill-rule="evenodd"/></g><path fill="#ffffff" d="M 207.496094 184.746094 C 206.378906 184.832031 200.609375 185.175781 187.746094 185.175781 C 177.511719 185.175781 170.246094 184.867188 167.699219 184.746094 C 128.15625 183.007812 98.636719 176.132812 98.636719 167.898438 C 98.636719 159.664062 128.15625 152.796875 167.699219 151.03125 L 167.699219 177.898438 C 170.285156 178.085938 177.691406 178.519531 187.921875 178.519531 C 200.203125 178.519531 206.351562 178.007812 207.457031 177.90625 L 207.457031 151.050781 C 246.917969 152.808594 276.371094 159.683594 276.371094 167.898438 C 276.371094 176.113281 246.925781 182.992188 207.457031 184.738281 Z M 207.496094 148.273438 L 207.496094 124.230469 L 262.566406 124.230469 L 262.566406 87.570312 L 112.628906 87.570312 L 112.628906 124.230469 L 167.691406 124.230469 L 167.691406 148.261719 C 122.9375 150.316406 89.28125 159.171875 89.28125 169.785156 C 89.28125 180.398438 122.9375 189.246094 167.691406 191.308594 L 167.691406 268.347656 L 207.484375 268.347656 L 207.484375 191.28125 C 252.136719 189.226562 285.738281 180.378906 285.738281 169.777344 C 285.738281 159.171875 252.164062 150.324219 207.484375 148.261719 Z M 207.496094 148.273438 Z M 207.496094 148.273438 " fill-opacity="1" fill-rule="evenodd"/></svg>