<svg xmlns="http://www.w3.org/2000/svg" xmlns:xlink="http://www.w3.org/1999/xlink" width="500" zoomAndPan="magnify" viewBox="0 0 375 374.999991" height="500" preserveAspectRatio="xMidYMid meet" version="1.0"><path fill="#321d47" d="M 373.417969 187.089844 C 373.417969 289.746094 290.214844 373.007812 187.5 373.007812 C 84.785156 373.007812 1.582031 289.804688 1.582031 187.089844 C 1.582031 84.375 84.84375 1.230469 187.5 1.230469 C 290.15625 1.230469 373.417969 84.433594 373.417969 187.089844 Z M 373.417969 187.089844 " fill-opacity="1" fill-rule="nonzero"/><path fill="#ffffff" d="M 260.273438 229.921875 L 220.664062 229.921875 L 213.222656 211.757812 L 162.949219 211.757812 L 155.507812 229.921875 L 115.898438 229.921875 L 163.300781 121.933594 L 212.8125 121.933594 Z M 188.144531 150 L 175.019531 182.226562 L 201.210938 182.226562 Z M 188.144531 150 " fill-opacity="1" fill-rule="nonzero"/><path fill="#e6007a" d="M 215.566406 71.542969 C 215.566406 72.441406 215.523438 73.339844 215.433594 74.238281 C 215.347656 75.132812 215.214844 76.019531 215.039062 76.902344 C 214.863281 77.785156 214.644531 78.660156 214.382812 79.519531 C 214.121094 80.382812 213.820312 81.226562 213.472656 82.058594 C 213.128906 82.890625 212.746094 83.703125 212.320312 84.496094 C 211.898438 85.289062 211.433594 86.0625 210.933594 86.808594 C 210.433594 87.558594 209.898438 88.28125 209.328125 88.976562 C 208.757812 89.671875 208.152344 90.339844 207.515625 90.972656 C 206.882812 91.609375 206.214844 92.214844 205.519531 92.785156 C 204.824219 93.355469 204.101562 93.890625 203.351562 94.390625 C 202.605469 94.890625 201.832031 95.355469 201.039062 95.777344 C 200.246094 96.203125 199.433594 96.585938 198.601562 96.929688 C 197.769531 97.277344 196.925781 97.578125 196.0625 97.839844 C 195.203125 98.101562 194.328125 98.320312 193.445312 98.496094 C 192.5625 98.671875 191.675781 98.804688 190.78125 98.890625 C 189.882812 98.980469 188.984375 99.023438 188.085938 99.023438 C 187.1875 99.023438 186.289062 98.980469 185.390625 98.890625 C 184.496094 98.804688 183.609375 98.671875 182.726562 98.496094 C 181.84375 98.320312 180.96875 98.101562 180.109375 97.839844 C 179.246094 97.578125 178.402344 97.277344 177.570312 96.929688 C 176.738281 96.585938 175.925781 96.203125 175.132812 95.777344 C 174.339844 95.355469 173.566406 94.890625 172.820312 94.390625 C 172.070312 93.890625 171.347656 93.355469 170.652344 92.785156 C 169.957031 92.214844 169.289062 91.609375 168.652344 90.972656 C 168.019531 90.339844 167.414062 89.671875 166.84375 88.976562 C 166.273438 88.28125 165.738281 87.558594 165.238281 86.808594 C 164.738281 86.0625 164.273438 85.289062 163.851562 84.496094 C 163.425781 83.703125 163.042969 82.890625 162.699219 82.058594 C 162.351562 81.226562 162.050781 80.382812 161.789062 79.519531 C 161.527344 78.660156 161.308594 77.785156 161.132812 76.902344 C 160.957031 76.019531 160.824219 75.132812 160.738281 74.238281 C 160.648438 73.339844 160.605469 72.441406 160.605469 71.542969 C 160.605469 70.644531 160.648438 69.746094 160.738281 68.847656 C 160.824219 67.953125 160.957031 67.066406 161.132812 66.183594 C 161.308594 65.300781 161.527344 64.425781 161.789062 63.566406 C 162.050781 62.703125 162.351562 61.859375 162.699219 61.027344 C 163.042969 60.195312 163.425781 59.382812 163.851562 58.589844 C 164.273438 57.796875 164.738281 57.023438 165.238281 56.277344 C 165.738281 55.527344 166.273438 54.804688 166.84375 54.109375 C 167.414062 53.414062 168.019531 52.746094 168.652344 52.113281 C 169.289062 51.476562 169.957031 50.871094 170.652344 50.300781 C 171.347656 49.730469 172.070312 49.195312 172.820312 48.695312 C 173.566406 48.195312 174.339844 47.730469 175.132812 47.308594 C 175.925781 46.882812 176.738281 46.5 177.570312 46.15625 C 178.402344 45.808594 179.246094 45.507812 180.109375 45.246094 C 180.96875 44.984375 181.84375 44.765625 182.726562 44.589844 C 183.609375 44.414062 184.496094 44.28125 185.390625 44.195312 C 186.289062 44.105469 187.1875 44.0625 188.085938 44.0625 C 188.984375 44.0625 189.882812 44.105469 190.78125 44.195312 C 191.675781 44.28125 192.5625 44.414062 193.445312 44.589844 C 194.328125 44.765625 195.203125 44.984375 196.0625 45.246094 C 196.925781 45.507812 197.769531 45.808594 198.601562 46.15625 C 199.433594 46.5 200.246094 46.882812 201.039062 47.308594 C 201.832031 47.730469 202.605469 48.195312 203.351562 48.695312 C 204.101562 49.195312 204.824219 49.730469 205.519531 50.300781 C 206.214844 50.871094 206.882812 51.476562 207.515625 52.113281 C 208.152344 52.746094 208.757812 53.414062 209.328125 54.109375 C 209.898438 54.804688 210.433594 55.527344 210.933594 56.277344 C 211.433594 57.023438 211.898438 57.796875 212.320312 58.589844 C 212.746094 59.382812 213.128906 60.195312 213.472656 61.027344 C 213.820312 61.859375 214.121094 62.703125 214.382812 63.566406 C 214.644531 64.425781 214.863281 65.300781 215.039062 66.183594 C 215.214844 67.066406 215.347656 67.953125 215.433594 68.847656 C 215.523438 69.746094 215.566406 70.644531 215.566406 71.542969 Z M 215.566406 71.542969 " fill-opacity="1" fill-rule="nonzero"/><path fill="#e6007a" d="M 215.566406 302.988281 C 215.566406 303.886719 215.523438 304.785156 215.433594 305.683594 C 215.347656 306.578125 215.214844 307.464844 215.039062 308.347656 C 214.863281 309.230469 214.644531 310.105469 214.382812 310.964844 C 214.121094 311.828125 213.820312 312.671875 213.472656 313.503906 C 213.128906 314.335938 212.746094 315.148438 212.320312 315.941406 C 211.898438 316.734375 211.433594 317.507812 210.933594 318.253906 C 210.433594 319.003906 209.898438 319.726562 209.328125 320.421875 C 208.757812 321.117188 208.152344 321.785156 207.515625 322.417969 C 206.882812 323.054688 206.214844 323.660156 205.519531 324.230469 C 204.824219 324.800781 204.101562 325.335938 203.351562 325.835938 C 202.605469 326.335938 201.832031 326.800781 201.039062 327.222656 C 200.246094 327.648438 199.433594 328.03125 198.601562 328.375 C 197.769531 328.722656 196.925781 329.023438 196.0625 329.285156 C 195.203125 329.546875 194.328125 329.765625 193.445312 329.941406 C 192.5625 330.117188 191.675781 330.25 190.78125 330.335938 C 189.882812 330.425781 188.984375 330.46875 188.085938 330.46875 C 187.1875 330.46875 186.289062 330.425781 185.390625 330.335938 C 184.496094 330.25 183.609375 330.117188 182.726562 329.941406 C 181.84375 329.765625 180.96875 329.546875 180.109375 329.285156 C 179.246094 329.023438 178.402344 328.722656 177.570312 328.375 C 176.738281 328.03125 175.925781 327.648438 175.132812 327.222656 C 174.339844 326.800781 173.566406 326.335938 172.820312 325.835938 C 172.070312 325.335938 171.347656 324.800781 170.652344 324.230469 C 169.957031 323.660156 169.289062 323.054688 168.652344 322.417969 C 168.019531 321.785156 167.414062 321.117188 166.84375 320.421875 C 166.273438 319.726562 165.738281 319.003906 165.238281 318.253906 C 164.738281 317.507812 164.273438 316.734375 163.851562 315.941406 C 163.425781 315.148438 163.042969 314.335938 162.699219 313.503906 C 162.351562 312.671875 162.050781 311.828125 161.789062 310.964844 C 161.527344 310.105469 161.308594 309.230469 161.132812 308.347656 C 160.957031 307.464844 160.824219 306.578125 160.738281 305.683594 C 160.648438 304.785156 160.605469 303.886719 160.605469 302.988281 C 160.605469 302.089844 160.648438 301.191406 160.738281 300.292969 C 160.824219 299.398438 160.957031 298.511719 161.132812 297.628906 C 161.308594 296.746094 161.527344 295.871094 161.789062 295.011719 C 162.050781 294.148438 162.351562 293.304688 162.699219 292.472656 C 163.042969 291.640625 163.425781 290.828125 163.851562 290.035156 C 164.273438 289.242188 164.738281 288.46875 165.238281 287.722656 C 165.738281 286.972656 166.273438 286.25 166.84375 285.554688 C 167.414062 284.859375 168.019531 284.191406 168.652344 283.554688 C 169.289062 282.921875 169.957031 282.316406 170.652344 281.746094 C 171.347656 281.175781 172.070312 280.640625 172.820312 280.140625 C 173.566406 279.640625 174.339844 279.175781 175.132812 278.753906 C 175.925781 278.328125 176.738281 277.945312 177.570312 277.597656 C 178.402344 277.253906 179.246094 276.953125 180.109375 276.691406 C 180.96875 276.429688 181.84375 276.210938 182.726562 276.035156 C 183.609375 275.859375 184.496094 275.726562 185.390625 275.640625 C 186.289062 275.550781 187.1875 275.507812 188.085938 275.507812 C 188.984375 275.507812 189.882812 275.550781 190.78125 275.640625 C 191.675781 275.726562 192.5625 275.859375 193.445312 276.035156 C 194.328125 276.210938 195.203125 276.429688 196.0625 276.691406 C 196.925781 276.953125 197.769531 277.253906 198.601562 277.597656 C 199.433594 277.945312 200.246094 278.328125 201.039062 278.753906 C 201.832031 279.175781 202.605469 279.640625 203.351562 280.140625 C 204.101562 280.640625 204.824219 281.175781 205.519531 281.746094 C 206.214844 282.316406 206.882812 282.921875 207.515625 283.554688 C 208.152344 284.191406 208.757812 284.859375 209.328125 285.554688 C 209.898438 286.25 210.433594 286.972656 210.933594 287.722656 C 211.433594 288.46875 211.898438 289.242188 212.320312 290.035156 C 212.746094 290.828125 213.128906 291.640625 213.472656 292.472656 C 213.820312 293.304688 214.121094 294.148438 214.382812 295.011719 C 214.644531 295.871094 214.863281 296.746094 215.039062 297.628906 C 215.214844 298.511719 215.347656 299.398438 215.433594 300.292969 C 215.523438 301.191406 215.566406 302.089844 215.566406 302.988281 Z M 215.566406 302.988281 " fill-opacity="1" fill-rule="nonzero"/><path fill="#e6007a" d="M 114.082031 126.5625 C 114.082031 127.460938 114.039062 128.359375 113.949219 129.257812 C 113.863281 130.152344 113.730469 131.039062 113.554688 131.921875 C 113.378906 132.804688 113.160156 133.679688 112.898438 134.539062 C 112.636719 135.402344 112.335938 136.246094 111.988281 137.078125 C 111.644531 137.910156 111.261719 138.722656 110.835938 139.515625 C 110.414062 140.308594 109.949219 141.082031 109.449219 141.828125 C 108.949219 142.578125 108.414062 143.300781 107.84375 143.996094 C 107.273438 144.691406 106.667969 145.359375 106.03125 145.992188 C 105.398438 146.628906 104.730469 147.234375 104.035156 147.804688 C 103.339844 148.375 102.617188 148.910156 101.867188 149.410156 C 101.121094 149.910156 100.347656 150.375 99.554688 150.796875 C 98.761719 151.222656 97.949219 151.605469 97.117188 151.949219 C 96.285156 152.296875 95.441406 152.597656 94.578125 152.859375 C 93.71875 153.121094 92.84375 153.339844 91.960938 153.515625 C 91.078125 153.691406 90.191406 153.824219 89.296875 153.910156 C 88.398438 154 87.5 154.042969 86.601562 154.042969 C 85.703125 154.042969 84.804688 154 83.90625 153.910156 C 83.011719 153.824219 82.125 153.691406 81.242188 153.515625 C 80.359375 153.339844 79.484375 153.121094 78.625 152.859375 C 77.761719 152.597656 76.917969 152.296875 76.085938 151.949219 C 75.253906 151.605469 74.441406 151.222656 73.648438 150.796875 C 72.855469 150.375 72.082031 149.910156 71.335938 149.410156 C 70.585938 148.910156 69.863281 148.375 69.167969 147.804688 C 68.472656 147.234375 67.804688 146.628906 67.171875 145.992188 C 66.535156 145.359375 65.929688 144.691406 65.359375 143.996094 C 64.789062 143.300781 64.253906 142.578125 63.753906 141.828125 C 63.253906 141.082031 62.789062 140.308594 62.367188 139.515625 C 61.941406 138.722656 61.558594 137.910156 61.214844 137.078125 C 60.867188 136.246094 60.566406 135.402344 60.304688 134.539062 C 60.042969 133.679688 59.824219 132.804688 59.648438 131.921875 C 59.472656 131.039062 59.339844 130.152344 59.253906 129.257812 C 59.164062 128.359375 59.121094 127.460938 59.121094 126.5625 C 59.121094 125.664062 59.164062 124.765625 59.253906 123.867188 C 59.339844 122.972656 59.472656 122.085938 59.648438 121.203125 C 59.824219 120.320312 60.042969 119.445312 60.304688 118.585938 C 60.566406 117.722656 60.867188 116.878906 61.214844 116.046875 C 61.558594 115.214844 61.941406 114.402344 62.367188 113.609375 C 62.789062 112.816406 63.253906 112.042969 63.753906 111.296875 C 64.253906 110.546875 64.789062 109.824219 65.359375 109.128906 C 65.929688 108.433594 66.535156 107.765625 67.171875 107.132812 C 67.804688 106.496094 68.472656 105.890625 69.167969 105.320312 C 69.863281 104.75 70.585938 104.214844 71.335938 103.714844 C 72.082031 103.214844 72.855469 102.75 73.648438 102.328125 C 74.441406 101.902344 75.253906 101.519531 76.085938 101.175781 C 76.917969 100.828125 77.761719 100.527344 78.625 100.265625 C 79.484375 100.003906 80.359375 99.785156 81.242188 99.609375 C 82.125 99.433594 83.011719 99.300781 83.90625 99.214844 C 84.804688 99.125 85.703125 99.082031 86.601562 99.082031 C 87.5 99.082031 88.398438 99.125 89.296875 99.214844 C 90.191406 99.300781 91.078125 99.433594 91.960938 99.609375 C 92.84375 99.785156 93.71875 100.003906 94.578125 100.265625 C 95.441406 100.527344 96.285156 100.828125 97.117188 101.175781 C 97.949219 101.519531 98.761719 101.902344 99.554688 102.328125 C 100.347656 102.75 101.121094 103.214844 101.867188 103.714844 C 102.617188 104.214844 103.339844 104.75 104.035156 105.320312 C 104.730469 105.890625 105.398438 106.496094 106.03125 107.132812 C 106.667969 107.765625 107.273438 108.433594 107.84375 109.128906 C 108.414062 109.824219 108.949219 110.546875 109.449219 111.296875 C 109.949219 112.042969 110.414062 112.816406 110.835938 113.609375 C 111.261719 114.402344 111.644531 115.214844 111.988281 116.046875 C 112.335938 116.878906 112.636719 117.722656 112.898438 118.585938 C 113.160156 119.445312 113.378906 120.320312 113.554688 121.203125 C 113.730469 122.085938 113.863281 122.972656 113.949219 123.867188 C 114.039062 124.765625 114.082031 125.664062 114.082031 126.5625 Z M 114.082031 126.5625 " fill-opacity="1" fill-rule="nonzero"/><path fill="#e6007a" d="M 317.109375 126.5625 C 317.109375 127.460938 317.066406 128.359375 316.976562 129.257812 C 316.890625 130.152344 316.757812 131.039062 316.582031 131.921875 C 316.40625 132.804688 316.1875 133.679688 315.925781 134.539062 C 315.664062 135.402344 315.363281 136.246094 315.015625 137.078125 C 314.671875 137.910156 314.289062 138.722656 313.863281 139.515625 C 313.441406 140.308594 312.976562 141.082031 312.476562 141.828125 C 311.976562 142.578125 311.441406 143.300781 310.871094 143.996094 C 310.300781 144.691406 309.695312 145.359375 309.058594 145.992188 C 308.425781 146.628906 307.757812 147.234375 307.0625 147.804688 C 306.367188 148.375 305.644531 148.910156 304.894531 149.410156 C 304.148438 149.910156 303.375 150.375 302.582031 150.796875 C 301.789062 151.222656 300.976562 151.605469 300.144531 151.949219 C 299.3125 152.296875 298.46875 152.597656 297.605469 152.859375 C 296.746094 153.121094 295.871094 153.339844 294.988281 153.515625 C 294.105469 153.691406 293.21875 153.824219 292.324219 153.910156 C 291.425781 154 290.527344 154.042969 289.628906 154.042969 C 288.730469 154.042969 287.832031 154 286.933594 153.910156 C 286.039062 153.824219 285.152344 153.691406 284.269531 153.515625 C 283.386719 153.339844 282.511719 153.121094 281.652344 152.859375 C 280.789062 152.597656 279.945312 152.296875 279.113281 151.949219 C 278.28125 151.605469 277.46875 151.222656 276.675781 150.796875 C 275.882812 150.375 275.109375 149.910156 274.363281 149.410156 C 273.613281 148.910156 272.890625 148.375 272.195312 147.804688 C 271.5 147.234375 270.832031 146.628906 270.195312 145.992188 C 269.5625 145.359375 268.957031 144.691406 268.386719 143.996094 C 267.816406 143.300781 267.28125 142.578125 266.78125 141.828125 C 266.28125 141.082031 265.816406 140.308594 265.394531 139.515625 C 264.96875 138.722656 264.585938 137.910156 264.238281 137.078125 C 263.894531 136.246094 263.59375 135.402344 263.332031 134.539062 C 263.070312 133.679688 262.851562 132.804688 262.675781 131.921875 C 262.5 131.039062 262.367188 130.152344 262.28125 129.257812 C 262.191406 128.359375 262.148438 127.460938 262.148438 126.5625 C 262.148438 125.664062 262.191406 124.765625 262.28125 123.867188 C 262.367188 122.972656 262.5 122.085938 262.675781 121.203125 C 262.851562 120.320312 263.070312 119.445312 263.332031 118.585938 C 263.59375 117.722656 263.894531 116.878906 264.238281 116.046875 C 264.585938 115.214844 264.96875 114.402344 265.394531 113.609375 C 265.816406 112.816406 266.28125 112.042969 266.78125 111.296875 C 267.28125 110.546875 267.816406 109.824219 268.386719 109.128906 C 268.957031 108.433594 269.5625 107.765625 270.199219 107.132812 C 270.832031 106.496094 271.5 105.890625 272.195312 105.320312 C 272.890625 104.75 273.613281 104.214844 274.363281 103.714844 C 275.109375 103.214844 275.882812 102.75 276.675781 102.328125 C 277.46875 101.902344 278.28125 101.519531 279.113281 101.175781 C 279.945312 100.828125 280.789062 100.527344 281.652344 100.265625 C 282.511719 100.003906 283.386719 99.785156 284.269531 99.609375 C 285.152344 99.433594 286.039062 99.300781 286.933594 99.214844 C 287.832031 99.125 288.730469 99.082031 289.628906 99.082031 C 290.527344 99.082031 291.425781 99.125 292.324219 99.214844 C 293.21875 99.300781 294.105469 99.433594 294.988281 99.609375 C 295.871094 99.785156 296.746094 100.003906 297.605469 100.265625 C 298.46875 100.527344 299.3125 100.828125 300.144531 101.175781 C 300.976562 101.519531 301.789062 101.902344 302.582031 102.328125 C 303.375 102.75 304.148438 103.214844 304.894531 103.714844 C 305.644531 104.214844 306.367188 104.75 307.0625 105.320312 C 307.757812 105.890625 308.425781 106.496094 309.058594 107.132812 C 309.695312 107.765625 310.300781 108.433594 310.871094 109.128906 C 311.441406 109.824219 311.976562 110.546875 312.476562 111.296875 C 312.976562 112.042969 313.441406 112.816406 313.863281 113.609375 C 314.289062 114.402344 314.671875 115.214844 315.015625 116.046875 C 315.363281 116.878906 315.664062 117.722656 315.925781 118.585938 C 316.1875 119.445312 316.40625 120.320312 316.582031 121.203125 C 316.757812 122.085938 316.890625 122.972656 316.976562 123.867188 C 317.066406 124.765625 317.109375 125.664062 317.109375 126.5625 Z M 317.109375 126.5625 " fill-opacity="1" fill-rule="nonzero"/><path fill="#e6007a" d="M 114.082031 248.90625 C 114.082031 249.804688 114.039062 250.703125 113.949219 251.601562 C 113.863281 252.496094 113.730469 253.382812 113.554688 254.265625 C 113.378906 255.148438 113.160156 256.023438 112.898438 256.882812 C 112.636719 257.746094 112.335938 258.589844 111.988281 259.421875 C 111.644531 260.253906 111.261719 261.066406 110.835938 261.859375 C 110.414062 262.652344 109.949219 263.425781 109.449219 264.171875 C 108.949219 264.921875 108.414062 265.644531 107.84375 266.339844 C 107.273438 267.035156 106.667969 267.703125 106.03125 268.335938 C 105.398438 268.972656 104.730469 269.578125 104.035156 270.148438 C 103.339844 270.71875 102.617188 271.253906 101.867188 271.753906 C 101.121094 272.253906 100.347656 272.71875 99.554688 273.140625 C 98.761719 273.566406 97.949219 273.949219 97.117188 274.292969 C 96.285156 274.640625 95.441406 274.941406 94.578125 275.203125 C 93.71875 275.464844 92.84375 275.683594 91.960938 275.859375 C 91.078125 276.035156 90.191406 276.167969 89.296875 276.253906 C 88.398438 276.34375 87.5 276.386719 86.601562 276.386719 C 85.703125 276.386719 84.804688 276.34375 83.90625 276.253906 C 83.011719 276.167969 82.125 276.035156 81.242188 275.859375 C 80.359375 275.683594 79.484375 275.464844 78.625 275.203125 C 77.761719 274.941406 76.917969 274.640625 76.085938 274.292969 C 75.253906 273.949219 74.441406 273.566406 73.648438 273.140625 C 72.855469 272.71875 72.082031 272.253906 71.335938 271.753906 C 70.585938 271.253906 69.863281 270.71875 69.167969 270.148438 C 68.472656 269.578125 67.804688 268.972656 67.171875 268.335938 C 66.535156 267.703125 65.929688 267.035156 65.359375 266.339844 C 64.789062 265.644531 64.253906 264.921875 63.753906 264.171875 C 63.253906 263.425781 62.789062 262.652344 62.367188 261.859375 C 61.941406 261.066406 61.558594 260.253906 61.214844 259.421875 C 60.867188 258.589844 60.566406 257.746094 60.304688 256.882812 C 60.042969 256.023438 59.824219 255.148438 59.648438 254.265625 C 59.472656 253.382812 59.339844 252.496094 59.253906 251.601562 C 59.164062 250.703125 59.121094 249.804688 59.121094 248.90625 C 59.121094 248.007812 59.164062 247.109375 59.253906 246.210938 C 59.339844 245.316406 59.472656 244.429688 59.648438 243.546875 C 59.824219 242.664062 60.042969 241.789062 60.304688 240.929688 C 60.566406 240.066406 60.867188 239.222656 61.214844 238.390625 C 61.558594 237.558594 61.941406 236.746094 62.367188 235.953125 C 62.789062 235.160156 63.253906 234.386719 63.753906 233.640625 C 64.253906 232.890625 64.789062 232.167969 65.359375 231.472656 C 65.929688 230.777344 66.535156 230.109375 67.171875 229.472656 C 67.804688 228.839844 68.472656 228.234375 69.167969 227.664062 C 69.863281 227.09375 70.585938 226.558594 71.335938 226.058594 C 72.082031 225.558594 72.855469 225.09375 73.648438 224.671875 C 74.441406 224.246094 75.253906 223.863281 76.085938 223.515625 C 76.917969 223.171875 77.761719 222.871094 78.625 222.609375 C 79.484375 222.347656 80.359375 222.128906 81.242188 221.953125 C 82.125 221.777344 83.011719 221.644531 83.90625 221.558594 C 84.804688 221.46875 85.703125 221.425781 86.601562 221.425781 C 87.5 221.425781 88.398438 221.46875 89.296875 221.558594 C 90.191406 221.644531 91.078125 221.777344 91.960938 221.953125 C 92.84375 222.128906 93.71875 222.347656 94.578125 222.609375 C 95.441406 222.871094 96.285156 223.171875 97.117188 223.519531 C 97.949219 223.863281 98.761719 224.246094 99.554688 224.671875 C 100.347656 225.09375 101.121094 225.558594 101.867188 226.058594 C 102.617188 226.558594 103.339844 227.09375 104.035156 227.664062 C 104.730469 228.234375 105.398438 228.839844 106.03125 229.476562 C 106.667969 230.109375 107.273438 230.777344 107.84375 231.472656 C 108.414062 232.167969 108.949219 232.890625 109.449219 233.640625 C 109.949219 234.386719 110.414062 235.160156 110.835938 235.953125 C 111.261719 236.746094 111.644531 237.558594 111.988281 238.390625 C 112.335938 239.222656 112.636719 240.066406 112.898438 240.929688 C 113.160156 241.789062 113.378906 242.664062 113.554688 243.546875 C 113.730469 244.429688 113.863281 245.316406 113.949219 246.210938 C 114.039062 247.109375 114.082031 248.007812 114.082031 248.90625 Z M 114.082031 248.90625 " fill-opacity="1" fill-rule="nonzero"/><path fill="#e6007a" d="M 317.109375 248.90625 C 317.109375 249.804688 317.066406 250.703125 316.976562 251.601562 C 316.890625 252.496094 316.757812 253.382812 316.582031 254.265625 C 316.40625 255.148438 316.1875 256.023438 315.925781 256.882812 C 315.664062 257.746094 315.363281 258.589844 315.015625 259.421875 C 314.671875 260.253906 314.289062 261.066406 313.863281 261.859375 C 313.441406 262.652344 312.976562 263.425781 312.476562 264.171875 C 311.976562 264.921875 311.441406 265.644531 310.871094 266.339844 C 310.300781 267.035156 309.695312 267.703125 309.058594 268.335938 C 308.425781 268.972656 307.757812 269.578125 307.0625 270.148438 C 306.367188 270.71875 305.644531 271.253906 304.894531 271.753906 C 304.148438 272.253906 303.375 272.71875 302.582031 273.140625 C 301.789062 273.566406 300.976562 273.949219 300.144531 274.292969 C 299.3125 274.640625 298.46875 274.941406 297.605469 275.203125 C 296.746094 275.464844 295.871094 275.683594 294.988281 275.859375 C 294.105469 276.035156 293.21875 276.167969 292.324219 276.253906 C 291.425781 276.34375 290.527344 276.386719 289.628906 276.386719 C 288.730469 276.386719 287.832031 276.34375 286.933594 276.253906 C 286.039062 276.167969 285.152344 276.035156 284.269531 275.859375 C 283.386719 275.683594 282.511719 275.464844 281.652344 275.203125 C 280.789062 274.941406 279.945312 274.640625 279.113281 274.292969 C 278.28125 273.949219 277.46875 273.566406 276.675781 273.140625 C 275.882812 272.71875 275.109375 272.253906 274.363281 271.753906 C 273.613281 271.253906 272.890625 270.71875 272.195312 270.148438 C 271.5 269.578125 270.832031 268.972656 270.195312 268.335938 C 269.5625 267.703125 268.957031 267.035156 268.386719 266.339844 C 267.816406 265.644531 267.28125 264.921875 266.78125 264.171875 C 266.28125 263.425781 265.816406 262.652344 265.394531 261.859375 C 264.96875 261.066406 264.585938 260.253906 264.238281 259.421875 C 263.894531 258.589844 263.59375 257.746094 263.332031 256.882812 C 263.070312 256.023438 262.851562 255.148438 262.675781 254.265625 C 262.5 253.382812 262.367188 252.496094 262.28125 251.601562 C 262.191406 250.703125 262.148438 249.804688 262.148438 248.90625 C 262.148438 248.007812 262.191406 247.109375 262.28125 246.210938 C 262.367188 245.316406 262.5 244.429688 262.675781 243.546875 C 262.851562 242.664062 263.070312 241.789062 263.332031 240.929688 C 263.59375 240.066406 263.894531 239.222656 264.238281 238.390625 C 264.585938 237.558594 264.96875 236.746094 265.394531 235.953125 C 265.816406 235.160156 266.28125 234.386719 266.78125 233.640625 C 267.28125 232.890625 267.816406 232.167969 268.386719 231.472656 C 268.957031 230.777344 269.5625 230.109375 270.199219 229.472656 C 270.832031 228.839844 271.5 228.234375 272.195312 227.664062 C 272.890625 227.09375 273.613281 226.558594 274.363281 226.058594 C 275.109375 225.558594 275.882812 225.09375 276.675781 224.671875 C 277.46875 224.246094 278.28125 223.863281 279.113281 223.515625 C 279.945312 223.171875 280.789062 222.871094 281.652344 222.609375 C 282.511719 222.347656 283.386719 222.128906 284.269531 221.953125 C 285.152344 221.777344 286.039062 221.644531 286.933594 221.558594 C 287.832031 221.46875 288.730469 221.425781 289.628906 221.425781 C 290.527344 221.425781 291.425781 221.46875 292.324219 221.558594 C 293.21875 221.644531 294.105469 221.777344 294.988281 221.953125 C 295.871094 222.128906 296.746094 222.347656 297.605469 222.609375 C 298.46875 222.871094 299.3125 223.171875 300.144531 223.519531 C 300.976562 223.863281 301.789062 224.246094 302.582031 224.671875 C 303.375 225.09375 304.148438 225.558594 304.894531 226.058594 C 305.644531 226.558594 306.367188 227.09375 307.0625 227.664062 C 307.757812 228.234375 308.425781 228.839844 309.058594 229.476562 C 309.695312 230.109375 310.300781 230.777344 310.871094 231.472656 C 311.441406 232.167969 311.976562 232.890625 312.476562 233.640625 C 312.976562 234.386719 313.441406 235.160156 313.863281 235.953125 C 314.289062 236.746094 314.671875 237.558594 315.015625 238.390625 C 315.363281 239.222656 315.664062 240.066406 315.925781 240.929688 C 316.1875 241.789062 316.40625 242.664062 316.582031 243.546875 C 316.757812 244.429688 316.890625 245.316406 316.976562 246.210938 C 317.066406 247.109375 317.109375 248.007812 317.109375 248.90625 Z M 317.109375 248.90625 " fill-opacity="1" fill-rule="nonzero"/></svg>